<?xml version="1.0" encoding="utf-8"?>
<!-- Generator: Adobe Illustrator 22.0.0, SVG Export Plug-In . SVG Version: 6.00 Build 0)  -->
<svg version="1.1" xmlns="http://www.w3.org/2000/svg" xmlns:xlink="http://www.w3.org/1999/xlink" x="0px" y="0px"
	 viewBox="0 0 101 34.1" style="enable-background:new 0 0 101 34.1;" xml:space="preserve">
<style type="text/css">
	.st0{display:none;}
	.st1{display:inline;}
	.st2{fill:#FFFFFF;}
</style>
<g id="Capa_3" class="st0">
	<rect class="st1" width="101" height="34.1"/>
</g>
<g id="Capa_1">
	<rect x="177.3" y="0.9" width="32" height="32"/>
	<title>Logo</title>
	<desc>Created with Sketch.</desc>
	<path id="Shape" class="st2" d="M23.3,14.1l4.6-2.6l-4.6-2.6l-4.5-2.6l0,0l-4.6,2.6l-4.6,2.6l0,0V22l0,0l4.6,2.6l4.6,2.6l0,0
		l4.6-2.6l4.6-2.6l-4.6-2.6L21,20.7L18.7,22l0,0l-2.3-1.3l-2.3-1.3l0,0l4.6-2.6l-4.6-2.6l0,0l2.3-1.3l2.3-1.3l0,0l2.3,1.3L23.3,14.1
		L23.3,14.1z M18.7,0.9L18.7,0.9l6.9,4l6.9,4v15.8l-6.9,4l-6.8,4l0,0l-6.9-4l-6.9-4l0,0V8.8l0,0l6.8-3.9L18.7,0.9z"/>
	<g id="Symbols_1_">
		<g id="Header-_x2F_-Step-1_1_" transform="translate(-135.000000, -14.000000)">
			<g id="Logo_1_" transform="translate(135.000000, 14.000000)">
				<path id="Shape_1_" class="st2" d="M18.5,77.2l4.6-2.6L18.5,72L14,69.3l0,0L9.4,72l-4.6,2.6l0,0v10.5l0,0l4.6,2.6l4.6,2.6l0,0
					l4.6-2.6l4.6-2.6l-4.6-2.6l-2.3,1.3L14,85.1l0,0l-2.3-1.3l-2.3-1.3l0,0l4.6-2.6l-4.6-2.6l0,0l2.3-1.3l2.3-1.3l0,0l2.3,1.3
					L18.5,77.2L18.5,77.2z M14,64L14,64l6.9,4l6.9,4v15.8l-6.9,4l-6.8,4l0,0l-6.9-4l-6.9-4l0,0V72l0,0L7.1,68L14,64z"/>
				<path id="Combined-Shape_3_" class="st2" d="M79.3,71.8c4.4,0,8,3.6,8,8s-3.6,8-8,8c-4.4,0-8-3.6-8-8S74.9,71.8,79.3,71.8z
					 M110.2,71.8c2.6,0,4.9,1.2,6.4,3.1l0,0l-3.1,2.5c-0.7-1-1.9-1.7-3.3-1.7c-2.2,0-4.1,1.8-4.1,4.1s1.8,4.1,4.1,4.1
					c1.3,0,2.5-0.7,3.3-1.7l0,0l3.1,2.5c-1.5,1.9-3.8,3.1-6.4,3.1c-4.4,0-8-3.6-8-8C102.2,75.4,105.8,71.8,110.2,71.8z M45.3,72.1
					v3.7H39v2.3h4.9v3.6H39v2.2h6.7v3.7H35l0-15.5H45.3z M58.2,72.1v3.7h-6.6v2.9H57v3.7h-5.4v5.2h-4V72.1H58.2z M70.5,72.1v3.7
					h-6.6v2.9h5.4v3.7h-5.4v5.2h-4V72.1H70.5z M95.3,72.1c3.9,0,5.6,2.3,5.6,5.5c0,2.2-0.9,3.7-2.4,4.5l-0.2,0.1l0,0l3.5,5.4H97
					l-2.9-4.7h-1v4.7h-4V72.1H95.3z M128.3,72.1v3.7H122v2.3h4.9v3.6H122v2.2h6.7v3.7H118l0-15.5H128.3z M79.3,75.8
					c-2.2,0-4.1,1.8-4.1,4.1s1.8,4.1,4.1,4.1c2.2,0,4.1-1.8,4.1-4.1S81.5,75.8,79.3,75.8z M94.4,75.8h-1.3v3.5h1.3
					c1.3,0,2.3-0.6,2.3-1.8C96.7,76.6,95.9,75.8,94.4,75.8z"/>
				<path id="Combined-Shape_2_" class="st2" d="M131.7,72.1c1,0,1.8,0.8,1.8,1.8c0,1-0.8,1.8-1.8,1.8c-1,0-1.8-0.8-1.8-1.8
					C129.9,73,130.6,72.1,131.7,72.1L131.7,72.1L131.7,72.1z M131.7,72.3c-0.9,0-1.6,0.7-1.6,1.6c0,0.9,0.7,1.6,1.6,1.6
					c0.9,0,1.6-0.7,1.6-1.6C133.3,73.1,132.6,72.3,131.7,72.3L131.7,72.3z M131.8,72.9c0.2,0,0.7,0.1,0.7,0.6c0,0.2-0.1,0.4-0.4,0.5
					c0.2,0.1,0.3,0.2,0.3,0.5c0,0.4,0,0.4,0.1,0.5l0,0h-0.3c0-0.1,0-0.2-0.1-0.5c0-0.2,0-0.4-0.5-0.4l0,0h-0.5V75h-0.3v-2.1H131.8z
					 M131.8,73.1l-0.6,0v0.8h0.5c0.1,0,0.6,0,0.6-0.4C132.3,73.1,131.9,73.1,131.8,73.1L131.8,73.1z"/>
			</g>
		</g>
	</g>
	<g id="Capa_2">
	</g>
	<path class="st2" d="M81.8,8.7v3.2l-3.7,9.5h3.7v3.2h-9.1v-2.3l3.8-10.4h-3.4V8.7H81.8z"/>
	<path class="st2" d="M94.1,8.7l-1.7,7l2.6,8.8h-4.6c-0.5-1.6-1.1-3.5-1.5-5.8c-0.1,1-0.3,2.1-0.5,3.2l-0.5,2.6h-4.8l1.8-8.8l-1.8-7
		h4.8c0.1,0.4,0.3,1.2,0.5,2.2c0.2,0.8,0.4,1.5,0.5,2.1L90,8.7H94.1z"/>
	<path class="st2" d="M57.3,8.7l-2.5,15.8h-7.5L44.4,8.7h5.2c0.6,4.4,1,8,1.3,11.1c0.3-3,0.5-5.8,0.8-8.1l0.3-2.9H57.3z"/>
	<path class="st2" d="M46.8,8.7l-2.5,15.8h-7.5L33.9,8.7h5.2c0.6,4.4,1,8,1.3,11.1c0.3-3,0.5-5.8,0.8-8.1l0.3-2.9H46.8z"/>
	<path class="st2" d="M65.3,8.7c4.4,0,8,3.5,8,7.9s-3.6,7.9-8,7.9c-4.4,0-8-3.5-8-7.9S60.9,8.7,65.3,8.7z M65.3,12.6
		c-2.2,0-4.1,1.8-4.1,4s1.8,4,4.1,4c2.2,0,4.1-1.8,4.1-4S67.6,12.6,65.3,12.6z"/>
	<path id="Shape_2_" class="st2" d="M197.3,14.7l4-2.3l-4-2.3l-4-2.3l0,0l-4,2.3l-4,2.3l0,0v9.3l0,0l4,2.3l4,2.3l0,0l4-2.3l4-2.3
		l-4-2.3l-2,1.2l-2,1.2l0,0l-2-1.2l-2-1.2l0,0l4-2.3l-4-2.3l0,0l2-1.2l2-1.2l0,0l2,1.2L197.3,14.7L197.3,14.7z M193.3,3L193.3,3
		l6.1,3.5l6.1,3.5v14l-6.1,3.5l-6.1,3.5l0,0l-6.1-3.5l-6.1-3.5l0,0V10l0,0l6-3.5L193.3,3z"/>
</g>
</svg>
