<svg id="Capa_1" data-name="Capa 1" xmlns="http://www.w3.org/2000/svg" viewBox="0 0 159.26 32"><defs><style>.cls-1{fill:#fff;}</style></defs><title>Mesa de trabajo 1</title><path id="Shape" class="cls-1" d="M16.08,11.26,13.44,6.69,10.8,11.26,8.18,15.8v0l2.63,4.57L13.43,25H24l2.64-4.57,2.63-4.57h0l-2.63-4.56L24,6.69l-2.64,4.57,1.32,2.28L24,15.81h0l-1.32,2.29-1.32,2.27h0l-2.64-4.57-2.63,4.57h0l-1.31-2.27-1.32-2.29v0l1.31-2.26,1.32-2.28ZM2.89,15.82l0,0L6.85,9l4-6.85H26.63L30.58,9l4,6.85h0l-4,6.85-3.95,6.85H10.8v0L6.85,22.67Z"/><path id="Combined-Shape" class="cls-1" d="M153.47,8.1a1.84,1.84,0,1,1-1.85,1.84,1.83,1.83,0,0,1,1.85-1.84h0Zm0,.21a1.63,1.63,0,1,0,1.61,1.63,1.61,1.61,0,0,0-1.61-1.63Zm.09.58c.22,0,.74,0,.74.57a.52.52,0,0,1-.38.52c.24.07.32.22.34.48s0,.45.07.53h-.26a1.71,1.71,0,0,1-.06-.48c0-.24-.05-.43-.55-.43h-.52V11h-.26V8.89Zm0,.2h-.62v.8h.53c.14,0,.57,0,.57-.41s-.38-.39-.52-.39Z"/><path class="cls-1" d="M61.79,7.79V11l-3.7,9.48h3.7V23.6H52.64V21.31L56.46,11H53.09V7.79Z"/><path class="cls-1" d="M73.13,7.79l-1.74,7L74,23.6H69.42a44.42,44.42,0,0,1-1.51-5.76c-.13,1-.3,2.07-.52,3.19l-.47,2.57H62.09l1.8-8.81-1.8-7h4.79c.09.44.26,1.17.52,2.18.21.78.38,1.49.51,2.14L69,7.79Z"/><path class="cls-1" d="M83.93,7.79V23.6H79V7.79Z"/><path class="cls-1" d="M97,7.79V23.6H92.65l-2.58-7.18V23.6H85.92V7.79h4.15l2.78,7.12V7.79Z"/><path class="cls-1" d="M110.79,7.79,108.26,23.6h-7.53L97.86,7.79h5.23q.91,6.54,1.3,11.06c.26-3.05.53-5.75.82-8.12l.34-2.94Z"/><path class="cls-1" d="M135.66,12.88h-4.79V11.71a1.93,1.93,0,0,0-.18-1.05.77.77,0,0,0-.62-.22.84.84,0,0,0-.7.3,1.47,1.47,0,0,0-.24.92,2.12,2.12,0,0,0,.27,1.19,3.79,3.79,0,0,0,1.46,1,14.82,14.82,0,0,1,4.33,2.67,5.13,5.13,0,0,1,.9,3.37,4.84,4.84,0,0,1-.5,2.49,3.74,3.74,0,0,1-1.92,1.35,9.21,9.21,0,0,1-3.3.54,8.88,8.88,0,0,1-3.53-.63A3.46,3.46,0,0,1,124.92,22a6.66,6.66,0,0,1-.45-2.74v-1h4.78v1.92a2,2,0,0,0,.21,1.15.85.85,0,0,0,.71.25.93.93,0,0,0,.77-.32,1.53,1.53,0,0,0,.25-1,2.46,2.46,0,0,0-.48-1.82A15.16,15.16,0,0,0,128.3,17a27.18,27.18,0,0,1-2.55-1.47,3.56,3.56,0,0,1-1-1.27,4.49,4.49,0,0,1-.41-2.07,4.75,4.75,0,0,1,.58-2.66,3.72,3.72,0,0,1,1.88-1.31,9,9,0,0,1,3.13-.48,10.19,10.19,0,0,1,3.43.52,3.49,3.49,0,0,1,1.87,1.3,5.64,5.64,0,0,1,.46,2.68Z"/><path class="cls-1" d="M148.09,8.09v3.17H145V23.91h-5.16V11.26h-3.05V8.09Z"/><polygon class="cls-1" points="122.83 7.79 122.83 11.56 116.31 11.56 116.31 13.94 121.42 13.94 121.42 17.61 116.31 17.61 116.31 19.84 123.31 19.84 123.31 23.6 112.14 23.6 112.14 7.79 122.83 7.79"/><path class="cls-1" d="M44.72,7.8a7.9,7.9,0,1,1-8,7.9A8,8,0,0,1,44.72,7.8Zm0,3.91a4,4,0,1,0,4.06,4A4,4,0,0,0,44.72,11.71Z"/></svg>